<?xml version="1.0" encoding="UTF-8"?>
<svg id="Layer_2" xmlns="http://www.w3.org/2000/svg" xmlns:xlink="http://www.w3.org/1999/xlink" viewBox="0 0 77 32">
  <defs>
    <style>
      .cls-1 {
        fill: #febc11;
      }

      .cls-2 {
        fill: url(#linear-gradient-2);
      }

      .cls-3 {
        fill: url(#linear-gradient);
      }
    </style>
    <linearGradient id="linear-gradient" x1="-897.04" y1="540.16" x2="-896.04" y2="540.16" gradientTransform="translate(34480.27 17301) scale(38.44 -32)" gradientUnits="userSpaceOnUse">
      <stop offset="0" stop-color="#febc11"/>
      <stop offset=".41" stop-color="#febc11"/>
      <stop offset=".9" stop-color="#febc11" stop-opacity="0"/>
      <stop offset="1" stop-color="#febc11" stop-opacity="0"/>
    </linearGradient>
    <linearGradient id="linear-gradient-2" x1="-863.79" y1="535.63" x2="-863.89" y2="536.71" gradientTransform="translate(14077.96 13650.97) scale(16.24 -25.44)" gradientUnits="userSpaceOnUse">
      <stop offset=".09" stop-color="#febc11"/>
      <stop offset=".8" stop-color="#febc11" stop-opacity="0"/>
      <stop offset="1" stop-color="#febc11" stop-opacity="0"/>
    </linearGradient>
  </defs>
  <g id="Layer_1-2" data-name="Layer_1">
    <g id="TOD---WEB">
      <g id="tod_logo">
        <g id="tod_logo_black">
          <path id="Path" d="M26.01,6.74h-9.19s-.06.03-.06.06v25.14s-.03.06-.06.06h-7.05s-.06-.03-.06-.06V6.8s-.03-.06-.06-.06H.06s-.06-.03-.06-.06v-3.66C0,1.35,1.36,0,3.03,0h35.38c.06,0,0,.09-.03.09l-6.94,2.25-5.38,4.35s-.03.06-.06.06Z"/>
          <path id="Path-2" data-name="Path" d="M38.38,0c-.52,0-1.01.03-1.5.06-4.72.42-8.79,2.76-11.45,6.24-2.06,2.68-3.27,6.05-3.27,9.75,0,9.07,6.94,15.93,16.16,15.93,1.27,0,2.5-.14,3.69-.4l-1.61-6.32c-.4.09-.82.15-1.25.19h-.77c-3.04,0-5.64-1.43-7.27-3.71-1.11-1.58-1.75-3.56-1.75-5.76,0-5.36,3.84-9.42,8.96-9.42.14,0,.27,0,.41.01l13.15.06h8.12c5.72.01,9.6,3.76,9.6,9.31s-3.84,9.39-9.6,9.39c-2.57,0-4.62,2.07-4.62,4.61v2.02h4.62c9.83,0,17-6.71,17-15.93.06-9.27-7.08-16.01-16.94-16.01h-21.68Z"/>
          <path id="Shape" d="M39.33,6.54c-.26,0-.51,0-.77,0h0c5.03.13,8.81,4.17,8.81,9.5s-3.79,9.33-8.82,9.42h.78v6.11l-.89.4c9.05-.06,16.13-7.07,16.13-16.01,0-3.54-1.03-6.75-2.88-9.35-4.4,0-8.46-.08-12.35-.07ZM38.44,31.97s-.08,0-.12,0h.12Z"/>
        </g>
        <g id="tod_logo_yellow">
          <path id="Path-3" data-name="Path" class="cls-3" d="M26.01,6.74h-9.19s-.06.03-.06.06v25.14s-.03.06-.06.06h-7.05s-.06-.03-.06-.06V6.8s-.03-.06-.06-.06H.06s-.06-.03-.06-.06v-3.66C0,1.35,1.36,0,3.03,0h35.38c.06,0,0,.09-.03.09l-6.94,2.25-5.38,4.35s-.03.06-.06.06Z"/>
          <path id="Path-4" data-name="Path" class="cls-1" d="M38.38,0c-.52,0-1.01.03-1.5.06-4.72.42-8.79,2.76-11.45,6.24-2.06,2.68-3.27,6.05-3.27,9.75,0,9.07,6.94,15.93,16.16,15.93,1.27,0,2.5-.14,3.69-.4l-1.61-6.32c-.4.09-.82.15-1.25.19h-.77c-3.04,0-5.64-1.43-7.27-3.71-1.11-1.58-1.75-3.56-1.75-5.76,0-5.36,3.84-9.42,8.96-9.42.14,0,.27,0,.41.01l13.15.06h8.12c5.72.01,9.6,3.76,9.6,9.31s-3.84,9.39-9.6,9.39c-2.57,0-4.62,2.07-4.62,4.61v2.02h4.62c9.83,0,17-6.71,17-15.93.06-9.27-7.08-16.01-16.94-16.01h-21.68Z"/>
          <path id="Shape-2" data-name="Shape" class="cls-2" d="M39.33,6.54c-.26,0-.51,0-.77,0h0c5.03.13,8.81,4.17,8.81,9.5s-3.79,9.33-8.82,9.42h.78v6.11l-.89.4c9.05-.06,16.13-7.07,16.13-16.01,0-3.54-1.03-6.75-2.88-9.35-4.4,0-8.46-.08-12.35-.07ZM38.44,31.97s-.08,0-.12,0h.12Z"/>
        </g>
      </g>
    </g>
  </g>
</svg>